<?xml version="1.0" encoding="UTF-8"?><svg id="Layer_1" xmlns="http://www.w3.org/2000/svg" xmlns:xlink="http://www.w3.org/1999/xlink" viewBox="0 0 525.15 525.15"><defs><style>.cls-1{fill:url(#linear-gradient);}.cls-1,.cls-2{stroke-width:0px;}.cls-2{fill:#fff;}</style><linearGradient id="linear-gradient" x1="73.87" y1="262.58" x2="451.28" y2="262.58" gradientUnits="userSpaceOnUse"><stop offset="0" stop-color="#00093f"/><stop offset="1" stop-color="#1f5cff"/></linearGradient></defs><path class="cls-2" d="m321.08,124.94l-29.04,16.77,113.05,65.03v10.91h-122.67c6.82-14.2,13.44-29.68,15.42-34.47,3.6-8.67,4.65-11.59,4.61-16.43.79-12.15-10.24-16.26-18.01-16.26h-66.34s99.22-57.37,99.22-57.37l12.66,21.93,14.03-54.17-53.38-13.99,12.44,21.55-211,122.01v196.87l170.76,98.59,170.24-98.1v-197.73l-112-65.14Zm25.75,118h11.74c1.58,0,2.63.19,1.5,2.14-1.13,1.95-27.91,64.6-27.91,64.6h-14.05l28.72-66.74Zm-53.68.19l-28.62,66.66h-21.91s5.59-11.14,7.62-15.98c2.03-4.84,3.38-7.88,3.45-12.64,0-19.66-25.06-24.72-25.06-24.72v-1.69c23.03,0,31.51-3.83,39.16-11.48.05-.05.1-.1.14-.15h25.22Zm-60.71-66.77c1.28,0,10.96.01,12.16.01,1.29,0,2.48-.17,1.97.84s-27.4,65.77-28.59,65.77h-14.44s28.8-66.63,28.89-66.63Zm-58.99-.05h5.32l-28.83,66.69-29.47.13v-36.19l52.98-30.63Zm-52.98,92.17h18.45l-18.45,42.69v-42.69Zm0,91.66h33.37l38.81-91.85h15.25l-17.69,39.58s-13.36,28.96-13.35,35.41c-.15,13.5,10.35,16.81,16.81,16.81h48.99s-27.65,65.42-27.91,65.27l-94.27-54.24v-10.97Zm137.68,90.19c6.03-16.76,48.39-115.13,48.39-115.13l14.72.02s-29.67,64.43-30.52,74.95c-.98,11.52,9.17,15.92,11.09,16.32,1.24.25,4.76.18,7.11.1l-45.88,26.58-4.91-2.83Zm98.76-51.53h-9.72s10.64-22.81,15.21-33.61c4.58-10.8,4.88-11.1,4.88-16.58.45-21.05-25.19-25.47-25.19-25.47l-.02-.88s.38-.13,9.53-.13c23.56-.53,33.46-15.08,36.76-20.71,2.95-5.03,14.34-30.5,16.73-35.86v105.34l-48.18,27.91Z"/><path class="cls-1" d="m262.83,506.93l-188.96-109.09v-217.89l204.35-118.16-25.15-43.57,113.13,29.65-18.51,71.47,103.6,60.26v218.73l-188.45,108.59Zm-39.98-65.12l15.75,9.09,2.42-6.72c6.15-17.09,47.06-112.13,48.8-116.17l4.75-11.02h.58l34.91-81.13h-13.97l-39.56,92.14h-63.4l13.22-26.37c2.05-4.09,5.8-11.75,7.1-14.85l.23-.56c1.66-3.95,1.79-4.43,1.8-5.33,0-3.11-8.29-6.09-10.33-6.56l-18.32,40.99c-4.61,10.01-9.1,20.92-11.01,26.58h74.29l-10.69,25.29s-6.89,16.3-13.83,32.62c-15.26,35.9-16.87,39.68-22.75,42Zm115.79-100.79l-.84,1.82c-11.21,24.34-23.83,53.65-27.82,65.5l12.9-.47,7.81-16.75c.1-.23,10.55-22.64,14.95-33.02l.9-2.11c1.11-2.62,2.17-5.11,2.53-6.15.01-.36,0-.75,0-1.21v-.39c.11-4.83-10.17-7.16-10.27-7.18l-.16-.03Zm-172.01,35.65l39.55,22.76c2.69-6.3,5.83-13.68,8.99-21.13h-21.51c-9.07,0-17.71-3.18-24.01-8.78l-3.02,7.16Zm218.86-27.88c-.01,5.86-.65,9.24-2.3,13.76l3.71-2.15v-30.95c-1.47,1.03-2.99,1.99-4.55,2.88,2.09,4.88,3.25,10.38,3.15,16.47Zm-258.47-6.85h14.76l34.12-80.75h-.04l35.35-81.67c1.84-4.23,3.4-7.84,5.02-10.82h-14.31l-74.89,173.25Zm249.21-88.45c-1.79,3.85-12.61,29-21.7,50.21,8.2-.94,14.16-4.72,18.13-11.5,1.32-2.28,7.18-14.71,15.81-34.06l9.94-22.29h-21.39c1.6,3.5,3.31,10-.79,17.64Zm-113.09-68.71c-.36.82-1.46,3.45-3.03,7.19-3.67,8.72-9.79,23.29-15.11,35.68-1.25,2.92-2.46,5.71-3.59,8.29,8.74-1.02,11.14-3.19,13.3-5.34l2.48-2.49,8.81-18.35c6.54-13.63,13.06-28.86,15.02-33.58,1.76-4.23,2.56-6.32,2.92-7.49h-20.91c2.45,5.02,2.5,10.86.1,16.08Zm-124.46,32.67v5.73l3.3-7.64-3.3,1.91Zm172.01-18.01h45.2l-36.8-21.17c-1.01,3.53-2.5,7.21-4.44,11.89-.89,2.14-2.26,5.38-3.96,9.28Z"/><path class="cls-2" d="m321.08,124.94l-29.04,16.77,113.05,65.03v10.91h-122.67c6.82-14.2,13.44-29.68,15.42-34.47,3.6-8.67,4.65-11.59,4.61-16.43.79-12.15-10.24-16.26-18.01-16.26h-66.34s99.22-57.37,99.22-57.37l12.66,21.93,14.03-54.17-53.38-13.99,12.44,21.55-211,122.01v196.87l170.76,98.59,170.24-98.1v-197.73l-112-65.14Zm25.75,118h11.74c1.58,0,2.63.19,1.5,2.14-1.13,1.95-27.91,64.6-27.91,64.6h-14.05l28.72-66.74Zm-53.68.19l-28.62,66.66h-21.91s5.59-11.14,7.62-15.98c2.03-4.84,3.38-7.88,3.45-12.64,0-19.66-25.06-24.72-25.06-24.72v-1.69c23.03,0,31.51-3.83,39.16-11.48.05-.05.1-.1.14-.15h25.22Zm-60.71-66.77c1.28,0,10.96.01,12.16.01,1.29,0,2.48-.17,1.97.84s-27.4,65.77-28.59,65.77h-14.44s28.8-66.63,28.89-66.63Zm-58.99-.05h5.32l-28.83,66.69-29.47.13v-36.19l52.98-30.63Zm-52.98,92.17h18.45l-18.45,42.69v-42.69Zm0,91.66h33.37l38.81-91.85h15.25l-17.69,39.58s-13.36,28.96-13.35,35.41c-.15,13.5,10.35,16.81,16.81,16.81h48.99s-27.65,65.42-27.91,65.27l-94.27-54.24v-10.97Zm137.68,90.19c6.03-16.76,48.39-115.13,48.39-115.13l14.72.02s-29.67,64.43-30.52,74.95c-.98,11.52,9.17,15.92,11.09,16.32,1.24.25,4.76.18,7.11.1l-45.88,26.58-4.91-2.83Zm98.76-51.53h-9.72s10.64-22.81,15.21-33.61c4.58-10.8,4.88-11.1,4.88-16.58.45-21.05-25.19-25.47-25.19-25.47l-.02-.88s.38-.13,9.53-.13c23.56-.53,33.46-15.08,36.76-20.71,2.95-5.03,14.34-30.5,16.73-35.86v105.34l-48.18,27.91Z"/></svg>